<svg width="80" height="40" viewBox="0 0 80 40" fill="none" xmlns="http://www.w3.org/2000/svg">
<path d="M8.64099 15.2602H4.11095L4.08672 12.765H7.89002C8.56024 12.765 9.10933 12.6802 9.5373 12.5107C9.96528 12.333 10.2842 12.0786 10.4942 11.7476C10.7122 11.4084 10.8212 10.9966 10.8212 10.5121C10.8212 9.96302 10.7162 9.51889 10.5063 9.17975C10.3044 8.8406 9.98546 8.59431 9.54942 8.44089C9.12145 8.28747 8.56831 8.21075 7.89002 8.21075H5.37064V23H1.73692V5.36434H7.89002C8.91553 5.36434 9.83204 5.46124 10.6395 5.65504C11.4551 5.84884 12.1455 6.14357 12.7108 6.53924C13.276 6.93491 13.708 7.43556 14.0068 8.04118C14.3056 8.63873 14.4549 9.34932 14.4549 10.173C14.4549 10.8997 14.2894 11.5699 13.9583 12.1836C13.6353 12.7973 13.1226 13.298 12.4201 13.6856C11.7256 14.0732 10.8172 14.2871 9.69477 14.3275L8.64099 15.2602ZM8.48353 23H3.11773L4.53488 20.1657H8.48353C9.12145 20.1657 9.64228 20.0648 10.046 19.8629C10.4498 19.6529 10.7485 19.3703 10.9423 19.015C11.1361 18.6597 11.233 18.2519 11.233 17.7917C11.233 17.2749 11.1442 16.8267 10.9666 16.4472C10.797 16.0677 10.5224 15.777 10.1429 15.5751C9.7634 15.3651 9.26276 15.2602 8.64099 15.2602H5.1405L5.16473 12.765H9.52519L10.3609 13.7461C11.4349 13.73 12.2989 13.9197 12.953 14.3154C13.6151 14.703 14.0956 15.2077 14.3944 15.8295C14.7012 16.4512 14.8547 17.1174 14.8547 17.828C14.8547 18.9585 14.6084 19.9113 14.1158 20.6865C13.6232 21.4536 12.9005 22.031 11.9477 22.4186C11.0029 22.8062 9.84819 23 8.48353 23ZM21.25 21.5223L24.7263 9.89438H28.469L23.2001 24.9743C23.087 25.3054 22.9336 25.6607 22.7398 26.0402C22.5541 26.4197 22.2997 26.7791 21.9767 27.1182C21.6618 27.4654 21.2621 27.7481 20.7776 27.9661C20.3012 28.1841 19.7158 28.2931 19.0213 28.2931C18.6902 28.2931 18.4197 28.2729 18.2098 28.2326C17.9998 28.1922 17.7495 28.1357 17.4588 28.063V25.5073C17.5476 25.5073 17.6405 25.5073 17.7374 25.5073C17.8343 25.5153 17.9272 25.5194 18.016 25.5194C18.4763 25.5194 18.8517 25.4669 19.1424 25.3619C19.4331 25.2569 19.6673 25.0954 19.845 24.8774C20.0226 24.6675 20.1639 24.3929 20.2689 24.0538L21.25 21.5223ZM19.7965 9.89438L22.6429 19.3905L23.1395 23.0848L20.7655 23.3391L16.0538 9.89438H19.7965ZM40.3028 17.1497H43.9244C43.8517 18.3367 43.5247 19.3905 42.9433 20.311C42.37 21.2316 41.5665 21.9503 40.5329 22.4671C39.5074 22.9839 38.272 23.2422 36.8266 23.2422C35.6961 23.2422 34.6827 23.0484 33.7863 22.6609C32.89 22.2652 32.1229 21.6999 31.485 20.9651C30.8551 20.2303 30.3747 19.3421 30.0436 18.3004C29.7125 17.2587 29.547 16.0919 29.547 14.7999V13.5765C29.547 12.2846 29.7166 11.1177 30.0557 10.0761C30.4029 9.02632 30.8955 8.13404 31.5334 7.39922C32.1794 6.6644 32.9506 6.09916 33.8469 5.70349C34.7432 5.30781 35.7445 5.10998 36.8508 5.10998C38.3204 5.10998 39.5599 5.37645 40.5693 5.9094C41.5867 6.44234 42.374 7.17716 42.9312 8.11386C43.4964 9.05055 43.8356 10.1164 43.9486 11.3115H40.3149C40.2745 10.6009 40.1332 9.99935 39.891 9.50678C39.6487 9.00614 39.2813 8.63065 38.7888 8.38033C38.3043 8.12193 37.6583 7.99273 36.8508 7.99273C36.2452 7.99273 35.7162 8.10578 35.2641 8.33188C34.8119 8.55798 34.4323 8.90116 34.1255 9.36143C33.8186 9.8217 33.5885 10.4031 33.4351 11.1056C33.2897 11.8001 33.2171 12.6156 33.2171 13.5523V14.7999C33.2171 15.7124 33.2857 16.5158 33.423 17.2103C33.5602 17.8966 33.7702 18.478 34.0528 18.9545C34.3435 19.4228 34.715 19.7781 35.1672 20.0203C35.6274 20.2545 36.1806 20.3716 36.8266 20.3716C37.5856 20.3716 38.2114 20.2505 38.704 20.0082C39.1965 19.766 39.572 19.4067 39.8304 18.9302C40.0969 18.4538 40.2544 17.8603 40.3028 17.1497ZM53.1662 20.0446V14.2064C53.1662 13.7865 53.0975 13.4272 52.9603 13.1284C52.823 12.8215 52.609 12.5833 52.3183 12.4138C52.0357 12.2442 51.6683 12.1594 51.2161 12.1594C50.8285 12.1594 50.4934 12.228 50.2108 12.3653C49.9281 12.4945 49.7101 12.6843 49.5567 12.9346C49.4033 13.1768 49.3266 13.4635 49.3266 13.7946H45.8382C45.8382 13.2374 45.9674 12.7085 46.2258 12.2078C46.4842 11.7072 46.8597 11.2671 47.3522 10.8876C47.8448 10.5 48.4302 10.1972 49.1085 9.97917C49.7949 9.76114 50.562 9.65213 51.4099 9.65213C52.4273 9.65213 53.3317 9.8217 54.1231 10.1609C54.9144 10.5 55.5362 11.0087 55.9884 11.687C56.4486 12.3653 56.6788 13.2132 56.6788 14.2306V19.8387C56.6788 20.5573 56.7232 21.1468 56.812 21.6071C56.9008 22.0593 57.03 22.4549 57.1996 22.7941V23H53.6749C53.5053 22.6447 53.3761 22.2006 53.2873 21.6676C53.2066 21.1266 53.1662 20.5856 53.1662 20.0446ZM53.6265 15.0179L53.6507 16.9922H51.7006C51.2403 16.9922 50.8406 17.0447 50.5015 17.1497C50.1623 17.2547 49.8837 17.4041 49.6657 17.5979C49.4477 17.7836 49.2862 18.0016 49.1812 18.2519C49.0843 18.5023 49.0359 18.7768 49.0359 19.0756C49.0359 19.3744 49.1045 19.6449 49.2418 19.8871C49.379 20.1213 49.5769 20.307 49.8353 20.4443C50.0937 20.5735 50.3965 20.6381 50.7437 20.6381C51.2686 20.6381 51.7248 20.5331 52.1124 20.3232C52.5 20.1132 52.7988 19.8548 53.0087 19.548C53.2267 19.2411 53.3398 18.9504 53.3479 18.6759L54.2684 20.1536C54.1392 20.4847 53.9616 20.8278 53.7355 21.1831C53.5174 21.5384 53.2389 21.8735 52.8997 22.1885C52.5606 22.4953 52.1528 22.7497 51.6764 22.9516C51.1999 23.1453 50.6347 23.2422 49.9806 23.2422C49.1489 23.2422 48.3939 23.0767 47.7156 22.7456C47.0454 22.4065 46.5124 21.9422 46.1168 21.3527C45.7292 20.7552 45.5354 20.0769 45.5354 19.3178C45.5354 18.6315 45.6646 18.0218 45.923 17.4889C46.1814 16.9559 46.5609 16.5078 47.0615 16.1444C47.5703 15.7729 48.2041 15.4943 48.9632 15.3086C49.7222 15.1148 50.6024 15.0179 51.6037 15.0179H53.6265ZM62.8561 12.7529V23H59.3677V9.89438H62.6502L62.8561 12.7529ZM66.8048 9.80959L66.7442 13.0436C66.5746 13.0194 66.3687 12.9992 66.1265 12.983C65.8923 12.9588 65.6783 12.9467 65.4845 12.9467C64.9919 12.9467 64.564 13.0113 64.2006 13.1405C63.8453 13.2616 63.5465 13.4433 63.3043 13.6856C63.0701 13.9278 62.8924 14.2225 62.7713 14.5698C62.6583 14.917 62.5937 15.3127 62.5775 15.7568L61.875 15.5388C61.875 14.6909 61.9598 13.9117 62.1294 13.2011C62.2989 12.4824 62.5452 11.8566 62.8682 11.3236C63.1993 10.7907 63.603 10.3789 64.0795 10.0882C64.5559 9.79748 65.1009 9.65213 65.7146 9.65213C65.9084 9.65213 66.1063 9.66828 66.3081 9.70058C66.51 9.7248 66.6756 9.76114 66.8048 9.80959ZM75.5378 19.3784C75.5378 19.1281 75.4651 18.902 75.3198 18.7001C75.1744 18.4982 74.9039 18.3125 74.5082 18.1429C74.1206 17.9653 73.5594 17.8038 72.8246 17.6584C72.1625 17.5131 71.5447 17.3314 70.9714 17.1134C70.4062 16.8873 69.9136 16.6168 69.4937 16.3018C69.0819 15.9869 68.7589 15.6155 68.5247 15.1875C68.2905 14.7515 68.1734 14.2548 68.1734 13.6977C68.1734 13.1486 68.2905 12.6318 68.5247 12.1473C68.767 11.6628 69.1101 11.2348 69.5543 10.8634C70.0065 10.4838 70.5556 10.1891 71.2015 9.97917C71.8556 9.76114 72.5904 9.65213 73.406 9.65213C74.5446 9.65213 75.5216 9.83382 76.3372 10.1972C77.1609 10.5606 77.7907 11.0612 78.2267 11.6991C78.6709 12.329 78.8929 13.0476 78.8929 13.8551H75.4046C75.4046 13.516 75.3319 13.2132 75.1865 12.9467C75.0493 12.6722 74.8312 12.4582 74.5325 12.3047C74.2418 12.1432 73.8622 12.0625 73.3939 12.0625C73.0063 12.0625 72.6712 12.1311 72.3886 12.2684C72.1059 12.3976 71.8879 12.5753 71.7345 12.8014C71.5891 13.0194 71.5165 13.2616 71.5165 13.5281C71.5165 13.73 71.5568 13.9117 71.6376 14.0732C71.7264 14.2266 71.8677 14.3679 72.0615 14.4971C72.2553 14.6263 72.5057 14.7474 72.8125 14.8605C73.1274 14.9654 73.515 15.0623 73.9753 15.1512C74.9201 15.345 75.7639 15.5993 76.5068 15.9142C77.2497 16.2211 77.8391 16.641 78.2752 17.1739C78.7112 17.6988 78.9293 18.3892 78.9293 19.2452C78.9293 19.8266 78.8001 20.3595 78.5417 20.844C78.2833 21.3285 77.9118 21.7524 77.4273 22.1158C76.9428 22.4711 76.3614 22.7497 75.6831 22.9516C75.0129 23.1453 74.2579 23.2422 73.4181 23.2422C72.1988 23.2422 71.1652 23.0242 70.3173 22.5882C69.4775 22.1521 68.8396 21.599 68.4036 20.9288C67.9756 20.2505 67.7616 19.556 67.7616 18.8454H71.0683C71.0845 19.3219 71.2056 19.7054 71.4317 19.9961C71.6659 20.2868 71.9606 20.4968 72.3159 20.626C72.6793 20.7552 73.0709 20.8198 73.4908 20.8198C73.943 20.8198 74.3185 20.7592 74.6172 20.6381C74.916 20.5089 75.1421 20.3393 75.2955 20.1294C75.457 19.9113 75.5378 19.661 75.5378 19.3784Z" fill="white"/>
<path d="M4.26362 37.0835V34.5536C4.26362 34.3598 4.22426 34.1917 4.14553 34.0494C4.06983 33.904 3.95476 33.792 3.80032 33.7133C3.64589 33.6345 3.45512 33.5952 3.22801 33.5952C3.01605 33.5952 2.82982 33.6315 2.66933 33.7042C2.51187 33.7768 2.38772 33.8722 2.29687 33.9903C2.20906 34.1084 2.16515 34.2356 2.16515 34.3719H1.32485C1.32485 34.1962 1.37027 34.0221 1.46112 33.8495C1.55196 33.6769 1.68217 33.521 1.85174 33.3817C2.02434 33.2394 2.23025 33.1273 2.46947 33.0456C2.71172 32.9608 2.98122 32.9184 3.27798 32.9184C3.63529 32.9184 3.95022 32.9789 4.22275 33.1001C4.4983 33.2212 4.7133 33.4044 4.86773 33.6497C5.02519 33.8919 5.10392 34.1962 5.10392 34.5626V36.8519C5.10392 37.0154 5.11755 37.1895 5.1448 37.3742C5.17508 37.5589 5.21899 37.7179 5.27652 37.8512V37.9238H4.39989C4.3575 37.8269 4.32419 37.6982 4.29996 37.5377C4.27574 37.3742 4.26362 37.2228 4.26362 37.0835ZM4.40897 34.9442L4.41806 35.5347H3.56868C3.32946 35.5347 3.11597 35.5543 2.92823 35.5937C2.74049 35.63 2.58303 35.6861 2.45585 35.7618C2.32867 35.8375 2.23177 35.9329 2.16515 36.0479C2.09853 36.16 2.06522 36.2917 2.06522 36.4431C2.06522 36.5975 2.10005 36.7383 2.16969 36.8655C2.23934 36.9927 2.34381 37.0941 2.4831 37.1698C2.62542 37.2425 2.79954 37.2788 3.00545 37.2788C3.26284 37.2788 3.48994 37.2243 3.68677 37.1153C3.8836 37.0063 4.03954 36.8731 4.15461 36.7156C4.27271 36.5582 4.3363 36.4052 4.34538 36.2569L4.70421 36.6611C4.68302 36.7883 4.62548 36.9291 4.53161 37.0835C4.43774 37.238 4.31207 37.3863 4.15461 37.5287C4.00018 37.668 3.81547 37.7845 3.60047 37.8784C3.3885 37.9692 3.14928 38.0147 2.88281 38.0147C2.54972 38.0147 2.25751 37.9496 2.00618 37.8194C1.75787 37.6892 1.56407 37.515 1.42478 37.297C1.28852 37.076 1.22038 36.8292 1.22038 36.5566C1.22038 36.2932 1.27186 36.0615 1.37482 35.8617C1.47777 35.6588 1.62615 35.4907 1.81995 35.3575C2.01375 35.2212 2.24691 35.1183 2.51944 35.0486C2.79197 34.979 3.09629 34.9442 3.43241 34.9442H4.40897ZM9.19822 35.7618H7.58575L7.57667 35.0895H8.89389C9.15431 35.0895 9.37082 35.0638 9.54342 35.0123C9.71905 34.9608 9.85077 34.8836 9.93859 34.7807C10.0264 34.6777 10.0703 34.5505 10.0703 34.3991C10.0703 34.281 10.0446 34.1781 9.99309 34.0903C9.94464 33.9994 9.87046 33.9252 9.77053 33.8677C9.6706 33.8071 9.54645 33.7632 9.39807 33.736C9.25272 33.7057 9.08164 33.6905 8.88481 33.6905H7.80832V37.9238H6.96802V33.0092H8.88481C9.1967 33.0092 9.4768 33.0365 9.72511 33.091C9.97644 33.1455 10.1899 33.2288 10.3656 33.3408C10.5442 33.4498 10.6805 33.5891 10.7743 33.7587C10.8682 33.9282 10.9152 34.1281 10.9152 34.3582C10.9152 34.5066 10.8849 34.6474 10.8243 34.7807C10.7637 34.9139 10.6744 35.032 10.5563 35.1349C10.4382 35.2379 10.2929 35.3227 10.1203 35.3893C9.94767 35.4529 9.74933 35.4938 9.52525 35.5119L9.19822 35.7618ZM9.19822 37.9238H7.28143L7.69931 37.2425H9.19822C9.43138 37.2425 9.62518 37.2137 9.77961 37.1562C9.93405 37.0956 10.0491 37.0109 10.1248 36.9018C10.2035 36.7898 10.2429 36.6566 10.2429 36.5021C10.2429 36.3477 10.2035 36.216 10.1248 36.107C10.0491 35.9949 9.93405 35.9101 9.77961 35.8526C9.62518 35.792 9.43138 35.7618 9.19822 35.7618H7.92187L7.93096 35.0895H9.52525L9.82958 35.3439C10.0991 35.3651 10.3277 35.4317 10.5154 35.5437C10.7032 35.6558 10.8455 35.7981 10.9424 35.9707C11.0393 36.1403 11.0878 36.325 11.0878 36.5248C11.0878 36.755 11.0438 36.9579 10.956 37.1335C10.8712 37.3091 10.7471 37.456 10.5836 37.5741C10.4201 37.6892 10.2217 37.777 9.98855 37.8375C9.75539 37.8951 9.49194 37.9238 9.19822 37.9238ZM14.6279 33.0092V37.9238H13.7831V33.0092H14.6279ZM16.2767 33.0092V33.6905H12.1661V33.0092H16.2767ZM17.1552 35.521V35.4166C17.1552 35.0623 17.2066 34.7337 17.3096 34.4309C17.4125 34.1251 17.5609 33.8601 17.7547 33.636C17.9485 33.4089 18.1832 33.2333 18.4588 33.1091C18.7343 32.982 19.0432 32.9184 19.3854 32.9184C19.7306 32.9184 20.0409 32.982 20.3165 33.1091C20.5951 33.2333 20.8313 33.4089 21.0251 33.636C21.2219 33.8601 21.3718 34.1251 21.4747 34.4309C21.5777 34.7337 21.6292 35.0623 21.6292 35.4166V35.521C21.6292 35.8753 21.5777 36.2039 21.4747 36.5067C21.3718 36.8095 21.2219 37.0744 21.0251 37.3016C20.8313 37.5256 20.5966 37.7013 20.321 37.8284C20.0485 37.9526 19.7396 38.0147 19.3944 38.0147C19.0492 38.0147 18.7389 37.9526 18.4633 37.8284C18.1877 37.7013 17.9515 37.5256 17.7547 37.3016C17.5609 37.0744 17.4125 36.8095 17.3096 36.5067C17.2066 36.2039 17.1552 35.8753 17.1552 35.521ZM17.9955 35.4166V35.521C17.9955 35.7663 18.0242 35.998 18.0818 36.216C18.1393 36.431 18.2256 36.6217 18.3407 36.7883C18.4588 36.9548 18.6056 37.0866 18.7812 37.1835C18.9569 37.2773 19.1613 37.3243 19.3944 37.3243C19.6246 37.3243 19.8259 37.2773 19.9985 37.1835C20.1742 37.0866 20.3195 36.9548 20.4346 36.7883C20.5497 36.6217 20.636 36.431 20.6935 36.216C20.7541 35.998 20.7843 35.7663 20.7843 35.521V35.4166C20.7843 35.1743 20.7541 34.9457 20.6935 34.7307C20.636 34.5127 20.5481 34.3204 20.43 34.1538C20.315 33.9843 20.1696 33.851 19.994 33.7541C19.8214 33.6572 19.6185 33.6088 19.3854 33.6088C19.1552 33.6088 18.9523 33.6572 18.7767 33.7541C18.6041 33.851 18.4588 33.9843 18.3407 34.1538C18.2256 34.3204 18.1393 34.5127 18.0818 34.7307C18.0242 34.9457 17.9955 35.1743 17.9955 35.4166ZM27.8874 37.3243C28.0872 37.3243 28.2719 37.2834 28.4415 37.2016C28.6111 37.1199 28.7504 37.0078 28.8594 36.8655C28.9684 36.7202 29.0305 36.5551 29.0456 36.3704H29.845C29.8299 36.6611 29.7315 36.9321 29.5498 37.1835C29.3711 37.4318 29.1364 37.6331 28.8457 37.7876C28.5551 37.939 28.2356 38.0147 27.8874 38.0147C27.5179 38.0147 27.1954 37.9496 26.9199 37.8194C26.6473 37.6892 26.4202 37.5105 26.2386 37.2834C26.0599 37.0563 25.9251 36.7959 25.8343 36.5021C25.7465 36.2054 25.7026 35.892 25.7026 35.5619V35.3711C25.7026 35.0411 25.7465 34.7292 25.8343 34.4355C25.9251 34.1387 26.0599 33.8768 26.2386 33.6497C26.4202 33.4226 26.6473 33.2439 26.9199 33.1137C27.1954 32.9835 27.5179 32.9184 27.8874 32.9184C28.2719 32.9184 28.608 32.9971 28.8957 33.1546C29.1834 33.309 29.409 33.521 29.5725 33.7905C29.739 34.0569 29.8299 34.3598 29.845 34.6989H29.0456C29.0305 34.496 28.9729 34.3128 28.873 34.1493C28.7761 33.9858 28.6429 33.8556 28.4733 33.7587C28.3067 33.6587 28.1114 33.6088 27.8874 33.6088C27.63 33.6088 27.4135 33.6603 27.2378 33.7632C27.0652 33.8631 26.9274 33.9994 26.8245 34.172C26.7246 34.3416 26.6519 34.5308 26.6065 34.7398C26.5641 34.9457 26.5429 35.1561 26.5429 35.3711V35.5619C26.5429 35.7769 26.5641 35.9889 26.6065 36.1978C26.6489 36.4067 26.72 36.596 26.8199 36.7656C26.9229 36.9352 27.0607 37.0714 27.2333 37.1744C27.4089 37.2743 27.6269 37.3243 27.8874 37.3243ZM37.3023 33.0092V33.7042H34.8178V33.0092H37.3023ZM34.9404 33.0092V37.9238H34.1001V33.0092H34.9404ZM38.0472 33.0092V37.9238H37.2024V33.0092H38.0472ZM40.7017 33.954V39.8134H39.8568V33.0092H40.629L40.7017 33.954ZM44.0129 35.4256V35.521C44.0129 35.8783 43.9705 36.2099 43.8857 36.5158C43.8009 36.8186 43.6768 37.082 43.5133 37.3061C43.3528 37.5302 43.1544 37.7043 42.9182 37.8284C42.6821 37.9526 42.411 38.0147 42.1052 38.0147C41.7933 38.0147 41.5177 37.9632 41.2785 37.8602C41.0393 37.7573 40.8364 37.6074 40.6699 37.4106C40.5033 37.2137 40.3701 36.9775 40.2702 36.702C40.1733 36.4264 40.1067 36.1161 40.0703 35.7708V35.2621C40.1067 34.8988 40.1748 34.5732 40.2747 34.2856C40.3746 33.9979 40.5064 33.7526 40.6699 33.5497C40.8364 33.3438 41.0378 33.1879 41.274 33.0819C41.5102 32.9729 41.7827 32.9184 42.0916 32.9184C42.4004 32.9184 42.6745 32.9789 42.9137 33.1001C43.1529 33.2182 43.3543 33.3877 43.5178 33.6088C43.6813 33.8298 43.804 34.0948 43.8857 34.4037C43.9705 34.7095 44.0129 35.0502 44.0129 35.4256ZM43.1681 35.521V35.4256C43.1681 35.1804 43.1423 34.9502 43.0908 34.7352C43.0394 34.5172 42.9591 34.3264 42.8501 34.1629C42.7441 33.9964 42.6079 33.8662 42.4413 33.7723C42.2748 33.6754 42.0764 33.627 41.8463 33.627C41.6343 33.627 41.4496 33.6633 41.2922 33.736C41.1377 33.8086 41.006 33.9071 40.897 34.0312C40.788 34.1523 40.6986 34.2916 40.629 34.4491C40.5624 34.6035 40.5124 34.764 40.4791 34.9306V36.107C40.5397 36.3189 40.6245 36.5188 40.7335 36.7065C40.8425 36.8912 40.9878 37.0411 41.1695 37.1562C41.3512 37.2682 41.5798 37.3243 41.8554 37.3243C42.0825 37.3243 42.2778 37.2773 42.4413 37.1835C42.6079 37.0866 42.7441 36.9548 42.8501 36.7883C42.9591 36.6217 43.0394 36.431 43.0908 36.216C43.1423 35.998 43.1681 35.7663 43.1681 35.521ZM45.3274 35.521V35.4166C45.3274 35.0623 45.3789 34.7337 45.4818 34.4309C45.5848 34.1251 45.7332 33.8601 45.927 33.636C46.1208 33.4089 46.3554 33.2333 46.631 33.1091C46.9066 32.982 47.2154 32.9184 47.5576 32.9184C47.9028 32.9184 48.2132 32.982 48.4887 33.1091C48.7673 33.2333 49.0035 33.4089 49.1973 33.636C49.3941 33.8601 49.544 34.1251 49.647 34.4309C49.7499 34.7337 49.8014 35.0623 49.8014 35.4166V35.521C49.8014 35.8753 49.7499 36.2039 49.647 36.5067C49.544 36.8095 49.3941 37.0744 49.1973 37.3016C49.0035 37.5256 48.7688 37.7013 48.4933 37.8284C48.2207 37.9526 47.9119 38.0147 47.5667 38.0147C47.2215 38.0147 46.9111 37.9526 46.6355 37.8284C46.36 37.7013 46.1238 37.5256 45.927 37.3016C45.7332 37.0744 45.5848 36.8095 45.4818 36.5067C45.3789 36.2039 45.3274 35.8753 45.3274 35.521ZM46.1677 35.4166V35.521C46.1677 35.7663 46.1965 35.998 46.254 36.216C46.3115 36.431 46.3978 36.6217 46.5129 36.7883C46.631 36.9548 46.7779 37.0866 46.9535 37.1835C47.1291 37.2773 47.3335 37.3243 47.5667 37.3243C47.7968 37.3243 47.9982 37.2773 48.1708 37.1835C48.3464 37.0866 48.4918 36.9548 48.6068 36.7883C48.7219 36.6217 48.8082 36.431 48.8657 36.216C48.9263 35.998 48.9566 35.7663 48.9566 35.521V35.4166C48.9566 35.1743 48.9263 34.9457 48.8657 34.7307C48.8082 34.5127 48.7204 34.3204 48.6023 34.1538C48.4872 33.9843 48.3419 33.851 48.1662 33.7541C47.9936 33.6572 47.7908 33.6088 47.5576 33.6088C47.3275 33.6088 47.1246 33.6572 46.9489 33.7541C46.7763 33.851 46.631 33.9843 46.5129 34.1538C46.3978 34.3204 46.3115 34.5127 46.254 34.7307C46.1965 34.9457 46.1677 35.1743 46.1677 35.4166ZM54.4726 30.8699H55.163C55.163 31.1666 55.1176 31.4028 55.0267 31.5784C54.9359 31.751 54.8117 31.8843 54.6543 31.9782C54.4998 32.072 54.3242 32.1432 54.1274 32.1916C53.9336 32.2401 53.7322 32.287 53.5233 32.3324C53.2628 32.3869 53.0206 32.4732 52.7965 32.5913C52.5755 32.7064 52.3847 32.8699 52.2242 33.0819C52.0667 33.2939 51.9502 33.5694 51.8745 33.9086C51.8018 34.2477 51.7821 34.6671 51.8154 35.1667V35.5846H51.125V35.1667C51.125 34.6065 51.178 34.1175 51.284 33.6996C51.393 33.2817 51.5459 32.929 51.7427 32.6413C51.9396 32.3536 52.1727 32.125 52.4422 31.9554C52.7148 31.7859 53.0145 31.6693 53.3416 31.6057C53.5778 31.5603 53.7806 31.5118 53.9502 31.4603C54.1198 31.4058 54.2485 31.3332 54.3363 31.2423C54.4271 31.1515 54.4726 31.0273 54.4726 30.8699ZM53.4778 33.2908C53.7988 33.2908 54.085 33.3469 54.3363 33.4589C54.5876 33.5709 54.8011 33.7269 54.9767 33.9267C55.1524 34.1266 55.2856 34.3628 55.3765 34.6353C55.4703 34.9048 55.5173 35.1985 55.5173 35.5165V35.6164C55.5173 35.9586 55.4673 36.2765 55.3674 36.5703C55.2705 36.861 55.1266 37.1153 54.9359 37.3333C54.7481 37.5483 54.518 37.7164 54.2455 37.8375C53.976 37.9587 53.6686 38.0192 53.3234 38.0192C52.9782 38.0192 52.6693 37.9587 52.3968 37.8375C52.1273 37.7164 51.8972 37.5483 51.7064 37.3333C51.5156 37.1153 51.3703 36.861 51.2704 36.5703C51.1735 36.2765 51.125 35.9586 51.125 35.6164V35.5165C51.125 35.4408 51.1386 35.3666 51.1659 35.2939C51.1931 35.2212 51.2264 35.1471 51.2658 35.0714C51.3082 34.9957 51.3461 34.9154 51.3794 34.8306C51.4914 34.5581 51.6443 34.3052 51.8381 34.0721C52.0349 33.8389 52.2696 33.6512 52.5422 33.5089C52.8177 33.3635 53.1296 33.2908 53.4778 33.2908ZM53.3143 33.9767C53.0055 33.9767 52.7511 34.0479 52.5512 34.1902C52.3544 34.3325 52.2075 34.5218 52.1106 34.7579C52.0137 34.9911 51.9653 35.244 51.9653 35.5165V35.6164C51.9653 35.8466 51.9926 36.0646 52.0471 36.2705C52.1016 36.4764 52.1833 36.6596 52.2923 36.8201C52.4044 36.9775 52.5452 37.1017 52.7148 37.1925C52.8874 37.2834 53.0902 37.3288 53.3234 37.3288C53.5566 37.3288 53.7579 37.2834 53.9275 37.1925C54.0971 37.1017 54.2364 36.9775 54.3454 36.8201C54.4544 36.6596 54.5362 36.4764 54.5907 36.2705C54.6452 36.0646 54.6724 35.8466 54.6724 35.6164V35.5165C54.6724 35.3106 54.6452 35.1153 54.5907 34.9306C54.5362 34.7458 54.4529 34.5823 54.3408 34.44C54.2318 34.2977 54.091 34.1856 53.9184 34.1039C53.7489 34.0191 53.5475 33.9767 53.3143 33.9767ZM58.9757 38.0147C58.6335 38.0147 58.3231 37.9571 58.0445 37.8421C57.769 37.724 57.5312 37.5589 57.3314 37.347C57.1346 37.135 56.9832 36.8837 56.8772 36.593C56.7712 36.3023 56.7182 35.9843 56.7182 35.6391V35.4484C56.7182 35.0486 56.7773 34.6928 56.8953 34.3809C57.0134 34.066 57.1739 33.7996 57.3768 33.5815C57.5797 33.3635 57.8098 33.1985 58.0672 33.0864C58.3246 32.9744 58.5911 32.9184 58.8666 32.9184C59.2179 32.9184 59.5207 32.9789 59.7751 33.1001C60.0325 33.2212 60.2429 33.3908 60.4064 33.6088C60.5699 33.8238 60.6911 34.0781 60.7698 34.3719C60.8485 34.6626 60.8879 34.9805 60.8879 35.3257V35.7027H57.2178V35.0169H60.0476V34.9533C60.0355 34.7352 59.9901 34.5233 59.9113 34.3174C59.8356 34.1114 59.7145 33.9419 59.548 33.8086C59.3814 33.6754 59.1543 33.6088 58.8666 33.6088C58.6759 33.6088 58.5002 33.6497 58.3398 33.7314C58.1793 33.8102 58.0415 33.9282 57.9264 34.0857C57.8113 34.2432 57.722 34.4355 57.6584 34.6626C57.5948 34.8897 57.563 35.1516 57.563 35.4484V35.6391C57.563 35.8723 57.5948 36.0918 57.6584 36.2977C57.725 36.5006 57.8204 36.6793 57.9446 36.8337C58.0718 36.9881 58.2247 37.1093 58.4033 37.1971C58.585 37.2849 58.7909 37.3288 59.0211 37.3288C59.3178 37.3288 59.5692 37.2682 59.7751 37.1471C59.981 37.026 60.1612 36.864 60.3156 36.6611L60.8243 37.0654C60.7183 37.2259 60.5836 37.3788 60.4201 37.5241C60.2565 37.6695 60.0552 37.7876 59.816 37.8784C59.5798 37.9692 59.2997 38.0147 58.9757 38.0147ZM65.5091 33.0092V33.7042H63.238V37.9238H62.3977V33.0092H65.5091ZM66.3921 35.521V35.4166C66.3921 35.0623 66.4436 34.7337 66.5465 34.4309C66.6495 34.1251 66.7978 33.8601 66.9916 33.636C67.1854 33.4089 67.4201 33.2333 67.6957 33.1091C67.9712 32.982 68.2801 32.9184 68.6223 32.9184C68.9675 32.9184 69.2779 32.982 69.5534 33.1091C69.832 33.2333 70.0682 33.4089 70.262 33.636C70.4588 33.8601 70.6087 34.1251 70.7117 34.4309C70.8146 34.7337 70.8661 35.0623 70.8661 35.4166V35.521C70.8661 35.8753 70.8146 36.2039 70.7117 36.5067C70.6087 36.8095 70.4588 37.0744 70.262 37.3016C70.0682 37.5256 69.8335 37.7013 69.558 37.8284C69.2854 37.9526 68.9766 38.0147 68.6314 38.0147C68.2862 38.0147 67.9758 37.9526 67.7002 37.8284C67.4247 37.7013 67.1885 37.5256 66.9916 37.3016C66.7978 37.0744 66.6495 36.8095 66.5465 36.5067C66.4436 36.2039 66.3921 35.8753 66.3921 35.521ZM67.2324 35.4166V35.521C67.2324 35.7663 67.2611 35.998 67.3187 36.216C67.3762 36.431 67.4625 36.6217 67.5776 36.7883C67.6957 36.9548 67.8425 37.0866 68.0182 37.1835C68.1938 37.2773 68.3982 37.3243 68.6314 37.3243C68.8615 37.3243 69.0629 37.2773 69.2355 37.1835C69.4111 37.0866 69.5564 36.9548 69.6715 36.7883C69.7866 36.6217 69.8729 36.431 69.9304 36.216C69.991 35.998 70.0213 35.7663 70.0213 35.521V35.4166C70.0213 35.1743 69.991 34.9457 69.9304 34.7307C69.8729 34.5127 69.7851 34.3204 69.667 34.1538C69.5519 33.9843 69.4066 33.851 69.2309 33.7541C69.0583 33.6572 68.8554 33.6088 68.6223 33.6088C68.3921 33.6088 68.1893 33.6572 68.0136 33.7541C67.841 33.851 67.6957 33.9843 67.5776 34.1538C67.4625 34.3204 67.3762 34.5127 67.3187 34.7307C67.2611 34.9457 67.2324 35.1743 67.2324 35.4166ZM75.2102 36.8065L76.8817 33.0092H77.6902L75.5009 37.9238H74.9195L72.7393 33.0092H73.5478L75.2102 36.8065ZM73.3025 33.0092V37.9238H72.4622V33.0092H73.3025ZM77.0907 37.9238V33.0092H77.9355V37.9238H77.0907Z" fill="white"/>
</svg>
