<svg width="79" height="28" viewBox="0 0 79 28" fill="none" xmlns="http://www.w3.org/2000/svg">
<g id="Audi-Logo 1" clip-path="url(#clip0_1_1936)">
<g id="layer1">
<path id="path36902" d="M64.8736 0C61.7244 0 58.8001 1.03871 56.4157 2.80001C54.0313 1.03871 51.1071 0 47.9579 0C44.8087 0 41.8844 1.03871 39.5 2.80001C37.1156 1.03871 34.2363 0 31.0421 0C27.8929 0 24.9687 1.03871 22.5843 2.80001C20.2449 1.03871 17.3206 0 14.1264 0C6.34339 0 0 6.27743 0 14C0 21.7226 6.34339 28 14.1264 28C17.2756 28 20.1999 26.9613 22.5843 25.2C24.9687 26.9613 27.8929 28 31.0421 28C34.1913 28 37.1156 26.9613 39.5 25.2C41.8394 26.9613 44.7637 28 47.9579 28C51.1071 28 54.0313 26.9613 56.4157 25.2C58.7551 26.9613 61.6794 28 64.8736 28C72.6566 28 79 21.7226 79 14C79 6.27743 72.6566 0 64.8736 0ZM56.4157 21.2258C54.7061 19.2839 53.6714 16.7548 53.6714 14C53.6714 11.2452 54.7061 8.71614 56.4157 6.7742C58.1253 8.71614 59.16 11.2452 59.16 14C59.16 16.7548 58.1253 19.2839 56.4157 21.2258ZM39.5 21.2258C37.7904 19.2839 36.7557 16.7548 36.7557 14C36.7557 11.2452 37.7904 8.71614 39.5 6.7742C41.2096 8.71614 42.2443 11.2452 42.2443 14C42.2443 16.7548 41.2096 19.2839 39.5 21.2258ZM22.5843 21.2258C20.8747 19.2839 19.84 16.7548 19.84 14C19.84 11.2452 20.8747 8.71614 22.5843 6.7742C24.2939 8.71614 25.3286 11.2452 25.3286 14C25.3736 16.7548 24.2939 19.2839 22.5843 21.2258ZM2.92426 14C2.92426 7.90323 7.96298 2.93548 14.1264 2.93548C16.4208 2.93548 18.5803 3.61291 20.3798 4.83226C18.2204 7.27097 16.9157 10.4774 16.9157 14C16.9157 17.5226 18.2204 20.729 20.3798 23.1677C18.5803 24.3419 16.4658 25.0645 14.1264 25.0645C7.96298 25.0645 2.92426 20.0968 2.92426 14ZM24.7887 23.1677C26.9482 20.729 28.2528 17.5226 28.2528 14C28.2528 10.4774 26.9482 7.27097 24.7887 4.83226C26.5883 3.65806 28.7027 2.93548 31.0421 2.93548C33.3815 2.93548 35.496 3.61291 37.2955 4.83226C35.1361 7.27097 33.7864 10.4774 33.7864 14C33.7864 17.5226 35.0911 20.729 37.2955 23.1677C35.496 24.3419 33.3815 25.0645 31.0421 25.0645C28.7477 25.0645 26.5883 24.3419 24.7887 23.1677ZM41.7044 23.1677C43.8639 20.729 45.2135 17.5226 45.2135 14C45.2135 10.4774 43.9089 7.27097 41.7044 4.83226C43.504 3.65806 45.6185 2.93548 47.9579 2.93548C50.2973 2.93548 52.4117 3.61291 54.2113 4.83226C52.0518 7.27097 50.7022 10.4774 50.7022 14C50.7022 17.5226 52.0068 20.729 54.2113 23.1677C52.4117 24.3419 50.2973 25.0645 47.9579 25.0645C45.6185 25.0645 43.504 24.3419 41.7044 23.1677ZM64.8736 25.0645C62.5792 25.0645 60.4197 24.3871 58.6201 23.1677C60.7796 20.729 62.1293 17.5226 62.1293 14C62.1293 10.4774 60.8246 7.27097 58.6201 4.83226C60.4197 3.65806 62.5342 2.93548 64.8736 2.93548C71.037 2.93548 76.0757 7.90323 76.0757 14C76.0757 20.0968 71.037 25.0645 64.8736 25.0645Z" fill="#292929"/>
</g>
</g>
<defs>
<clipPath id="clip0_1_1936">
<rect width="79" height="28" fill="white"/>
</clipPath>
</defs>
</svg>
