<svg width="32" height="32" viewBox="0 0 32 32" fill="none" xmlns="http://www.w3.org/2000/svg">
<path d="M16.5 28L14.5425 26.2997C12.27 24.3161 10.3913 22.6049 8.90625 21.1662C7.42125 19.7275 6.24 18.436 5.3625 17.2916C4.485 16.1471 3.87187 15.0954 3.52312 14.1362C3.17438 13.1771 3 12.1962 3 11.1935C3 9.14441 3.70875 7.43324 5.12625 6.05995C6.54375 4.68665 8.31 4 10.425 4C11.595 4 12.7087 4.23978 13.7662 4.71935C14.8237 5.19891 15.735 5.87466 16.5 6.74659C17.265 5.87466 18.1763 5.19891 19.2337 4.71935C20.2913 4.23978 21.405 4 22.575 4C24.69 4 26.4563 4.68665 27.8738 6.05995C29.2913 7.43324 30 9.14441 30 11.1935C30 12.1962 29.8256 13.1771 29.4769 14.1362C29.1281 15.0954 28.515 16.1471 27.6375 17.2916C26.76 18.436 25.5788 19.7275 24.0938 21.1662C22.6087 22.6049 20.73 24.3161 18.4575 26.2997L16.5 28ZM16.5 24.4687C18.66 22.594 20.4375 20.9864 21.8325 19.6458C23.2275 18.3052 24.33 17.139 25.14 16.1471C25.95 15.1553 26.5125 14.2725 26.8275 13.4986C27.1425 12.7248 27.3 11.9564 27.3 11.1935C27.3 9.88556 26.85 8.79564 25.95 7.92371C25.05 7.05177 23.925 6.6158 22.575 6.6158C21.5175 6.6158 20.5387 6.90463 19.6388 7.48229C18.7387 8.05995 18.12 8.79564 17.7825 9.68937H15.2175C14.88 8.79564 14.2612 8.05995 13.3612 7.48229C12.4612 6.90463 11.4825 6.6158 10.425 6.6158C9.075 6.6158 7.95 7.05177 7.05 7.92371C6.15 8.79564 5.7 9.88556 5.7 11.1935C5.7 11.9564 5.8575 12.7248 6.1725 13.4986C6.4875 14.2725 7.05 15.1553 7.86 16.1471C8.67 17.139 9.7725 18.3052 11.1675 19.6458C12.5625 20.9864 14.34 22.594 16.5 24.4687Z" fill="white"/>
</svg>
