<svg width="98" height="42" viewBox="0 0 42 42" fill="none" xmlns="http://www.w3.org/2000/svg">

<path id="call_2" d="M31.6167 33.25C28.2722 33.25 25.012 32.5046 21.8361 31.0139C18.6602 29.5231 15.8472 27.5528 13.3972 25.1028C10.9472 22.6528 8.97685 19.8398 7.48611 16.6639C5.99537 13.488 5.25 10.2278 5.25 6.88333C5.25 6.41667 5.40556 6.02778 5.71667 5.71667C6.02778 5.40556 6.41667 5.25 6.88333 5.25H13.1833C13.5463 5.25 13.8704 5.36667 14.1556 5.6C14.4407 5.83333 14.6093 6.13148 14.6611 6.49444L15.6722 11.9389C15.7241 12.3019 15.7176 12.6324 15.6528 12.9306C15.588 13.2287 15.4389 13.4944 15.2056 13.7278L11.4333 17.5389C12.5222 19.4056 13.8898 21.1556 15.5361 22.7889C17.1824 24.4222 18.9907 25.8352 20.9611 27.0278L24.6167 23.3722C24.85 23.1389 25.1546 22.9639 25.5306 22.8472C25.9065 22.7306 26.2759 22.6981 26.6389 22.75L32.0056 23.8389C32.3685 23.9167 32.6667 24.0917 32.9 24.3639C33.1333 24.6361 33.25 24.9537 33.25 25.3167V31.6167C33.25 32.0833 33.0944 32.4722 32.7833 32.7833C32.4722 33.0944 32.0833 33.25 31.6167 33.25ZM9.95556 14.5833L12.5222 12.0167L11.8611 8.36111H8.4C8.52963 9.42407 8.71111 10.4741 8.94444 11.5111C9.17778 12.5481 9.51481 13.5722 9.95556 14.5833ZM23.8778 28.5056C24.8889 28.9463 25.9194 29.2963 26.9694 29.5556C28.0194 29.8148 29.0759 29.9833 30.1389 30.0611V26.6389L26.4833 25.9L23.8778 28.5056Z" fill="#fff815"/>

</svg>
