<?xml version="1.0" encoding="utf-8"?><svg viewBox="0 0 98 42" xmlns="http://www.w3.org/2000/svg" xmlns:xlink="http://www.w3.org/1999/xlink"><style>:root>svg{display:none}:root>svg:target{display:block}</style><svg viewBox="0 0 24 25" id="arrow" xmlns="http://www.w3.org/2000/svg"><path d="M6.4 18L5 16.6 14.6 7H6V5h12v12h-2V8.4L6.4 18z"/></svg><svg viewBox="0 0 79 28" id="audi" xmlns="http://www.w3.org/2000/svg"><g clip-path="url(#ba)"><path d="M64.874 0a14.19 14.19 0 00-8.458 2.8A14.19 14.19 0 0047.958 0 14.19 14.19 0 0039.5 2.8C37.116 1.039 34.236 0 31.042 0a14.19 14.19 0 00-8.458 2.8C20.244 1.039 17.321 0 14.126 0 6.343 0 0 6.277 0 14s6.343 14 14.126 14a14.19 14.19 0 008.458-2.8 14.19 14.19 0 008.458 2.8 14.19 14.19 0 008.458-2.8c2.34 1.761 5.264 2.8 8.458 2.8a14.19 14.19 0 008.458-2.8c2.34 1.761 5.263 2.8 8.458 2.8C72.657 28 79 21.723 79 14S72.657 0 64.874 0zm-8.458 21.226A10.906 10.906 0 0153.67 14c0-2.755 1.035-5.284 2.745-7.226A10.906 10.906 0 0159.16 14a10.91 10.91 0 01-2.744 7.226zm-16.916 0A10.906 10.906 0 0136.756 14c0-2.755 1.034-5.284 2.744-7.226A10.906 10.906 0 0142.244 14c0 2.755-1.034 5.284-2.744 7.226zm-16.916 0A10.906 10.906 0 0119.84 14a10.91 10.91 0 012.744-7.226A10.906 10.906 0 0125.33 14c.045 2.755-1.035 5.284-2.745 7.226zM2.924 14c0-6.097 5.039-11.065 11.202-11.065 2.295 0 4.454.678 6.254 1.897A13.769 13.769 0 0016.916 14c0 3.523 1.304 6.729 3.464 9.168-1.8 1.174-3.914 1.896-6.254 1.896-6.163 0-11.202-4.967-11.202-11.064zm21.865 9.168A13.768 13.768 0 0028.253 14c0-3.523-1.305-6.729-3.464-9.168 1.8-1.174 3.914-1.897 6.253-1.897 2.34 0 4.454.678 6.253 1.897-2.159 2.439-3.509 5.645-3.509 9.168 0 3.523 1.305 6.729 3.51 9.168-1.8 1.174-3.914 1.896-6.254 1.896-2.294 0-4.454-.722-6.253-1.896zm16.915 0c2.16-2.439 3.51-5.645 3.51-9.168 0-3.523-1.305-6.729-3.51-9.168 1.8-1.174 3.914-1.897 6.254-1.897 2.34 0 4.454.678 6.253 1.897-2.16 2.439-3.509 5.645-3.509 9.168 0 3.523 1.305 6.729 3.51 9.168-1.8 1.174-3.915 1.896-6.254 1.896-2.34 0-4.454-.722-6.254-1.896zm23.17 1.896a11.11 11.11 0 01-6.254-1.896c2.16-2.439 3.51-5.645 3.51-9.168 0-3.523-1.305-6.729-3.51-9.168 1.8-1.174 3.914-1.897 6.254-1.897 6.163 0 11.202 4.968 11.202 11.065 0 6.097-5.039 11.064-11.202 11.064z"/></g><defs><clipPath id="ba"><path d="M0 0h79v28H0z"/></clipPath></defs></svg><svg viewBox="0 0 30 30" id="close" xmlns="http://www.w3.org/2000/svg"><path d="M7.777 21.92L21.919 7.778m.003 14.142L7.78 7.778"/></svg><svg viewBox="0 0 32 32" id="favorite" xmlns="http://www.w3.org/2000/svg"><path d="M16.5 28l-1.957-1.7c-2.273-1.984-4.152-3.695-5.637-5.134-1.485-1.439-2.666-2.73-3.544-3.874-.877-1.145-1.49-2.197-1.839-3.156A8.55 8.55 0 013 11.194c0-2.05.709-3.76 2.126-5.134C6.544 4.687 8.31 4 10.425 4c1.17 0 2.284.24 3.341.72A7.981 7.981 0 0116.5 6.746a7.982 7.982 0 012.734-2.028A7.999 7.999 0 0122.575 4c2.115 0 3.881.687 5.299 2.06C29.29 7.433 30 9.144 30 11.194a8.55 8.55 0 01-.523 2.942c-.349.96-.962 2.011-1.84 3.156-.877 1.144-2.058 2.435-3.543 3.874-1.485 1.439-3.364 3.15-5.637 5.134L16.5 28zm0-3.531c2.16-1.875 3.938-3.483 5.332-4.823 1.395-1.34 2.498-2.507 3.308-3.499.81-.992 1.372-1.874 1.688-2.648a6.078 6.078 0 00.472-2.306c0-1.307-.45-2.397-1.35-3.27-.9-.871-2.025-1.307-3.375-1.307a5.33 5.33 0 00-2.936.866c-.9.578-1.519 1.314-1.857 2.207h-2.565c-.337-.893-.956-1.629-1.856-2.207a5.33 5.33 0 00-2.936-.866c-1.35 0-2.475.436-3.375 1.308-.9.872-1.35 1.962-1.35 3.27 0 .762.157 1.53.473 2.305.314.774.877 1.656 1.687 2.648.81.992 1.913 2.158 3.308 3.499 1.395 1.34 3.172 2.948 5.332 4.823z"/></svg><svg viewBox="0 0 80 40" id="logo" xmlns="http://www.w3.org/2000/svg"><path d="M8.641 15.26h-4.53l-.024-2.495H7.89c.67 0 1.22-.085 1.647-.254.428-.178.747-.432.957-.763.218-.34.327-.751.327-1.236 0-.549-.105-.993-.315-1.332-.202-.34-.52-.586-.957-.74-.428-.153-.98-.23-1.659-.23H5.37V23H1.738V5.364H7.89c1.026 0 1.942.097 2.75.291.815.194 1.505.489 2.07.884a3.94 3.94 0 011.297 1.502c.299.598.448 1.308.448 2.132 0 .727-.166 1.397-.497 2.01-.323.614-.835 1.115-1.538 1.503-.694.387-1.603.601-2.725.642l-1.054.932zM8.484 23H3.118l1.417-2.834h3.949c.637 0 1.158-.101 1.562-.303.404-.21.703-.493.896-.848a2.51 2.51 0 00.291-1.223c0-.517-.089-.965-.266-1.345-.17-.38-.445-.67-.824-.872-.38-.21-.88-.315-1.502-.315h-3.5l.024-2.495h4.36l.836.981c1.074-.016 1.938.174 2.592.57.662.387 1.143.892 1.441 1.513.307.622.46 1.288.46 1.999 0 1.13-.246 2.083-.738 2.858-.493.768-1.216 1.345-2.168 1.733-.945.387-2.1.581-3.464.581zm12.766-1.478l3.476-11.628h3.743L23.2 24.974a8.175 8.175 0 01-.46 1.066c-.186.38-.44.74-.763 1.078-.315.347-.715.63-1.2.848-.476.218-1.061.327-1.756.327-.33 0-.601-.02-.811-.06-.21-.04-.46-.097-.751-.17v-2.556h.278c.097.008.19.012.279.012.46 0 .836-.052 1.126-.157.291-.105.525-.267.703-.485.178-.21.319-.484.424-.823l.981-2.532zM19.797 9.894l2.846 9.496.497 3.695-2.375.254-4.711-13.445h3.743zm20.506 7.256h3.621c-.072 1.187-.4 2.24-.98 3.161-.574.92-1.378 1.64-2.411 2.156-1.026.517-2.261.775-3.706.775-1.13 0-2.144-.194-3.04-.581a6.47 6.47 0 01-2.302-1.696c-.63-.735-1.11-1.623-1.441-2.665-.332-1.041-.497-2.208-.497-3.5v-1.224c0-1.291.17-2.458.509-3.5.347-1.05.84-1.942 1.477-2.677a6.586 6.586 0 012.314-1.696c.896-.395 1.898-.593 3.004-.593 1.47 0 2.709.266 3.718.8 1.018.532 1.805 1.267 2.362 2.204.565.937.905 2.002 1.018 3.197h-3.634c-.04-.71-.182-1.312-.424-1.804-.242-.5-.61-.876-1.102-1.127-.485-.258-1.13-.387-1.938-.387-.606 0-1.135.113-1.587.339-.452.226-.832.57-1.139 1.03-.306.46-.536 1.041-.69 1.744-.145.694-.218 1.51-.218 2.446V14.8c0 .912.069 1.716.206 2.41.137.687.347 1.268.63 1.744.29.469.662.824 1.114 1.066.46.235 1.014.352 1.66.352.759 0 1.384-.122 1.877-.364a2.51 2.51 0 001.126-1.078c.267-.476.424-1.07.473-1.78zm12.863 2.895v-5.839c0-.42-.069-.779-.206-1.078a1.532 1.532 0 00-.642-.714c-.282-.17-.65-.255-1.102-.255-.388 0-.723.069-1.005.206-.283.13-.5.32-.654.57-.154.242-.23.528-.23.86h-3.489c0-.558.13-1.086.388-1.587.258-.5.634-.94 1.126-1.32a5.562 5.562 0 011.757-.909c.686-.218 1.453-.327 2.3-.327 1.018 0 1.923.17 2.714.509.791.339 1.413.848 1.865 1.526.46.678.69 1.526.69 2.544v5.608c0 .718.045 1.308.134 1.768.089.452.218.848.388 1.187V23h-3.525c-.17-.355-.299-.8-.388-1.332a10.986 10.986 0 01-.12-1.623zm.46-5.027l.025 1.974H51.7c-.46 0-.86.053-1.2.158a2.227 2.227 0 00-.835.448c-.218.186-.38.404-.485.654a2.26 2.26 0 00-.145.824c0 .298.069.569.206.811.137.234.335.42.593.557.259.13.562.194.909.194.525 0 .98-.105 1.368-.315.388-.21.687-.468.897-.775.218-.307.33-.598.339-.872l.92 1.478c-.129.33-.306.674-.532 1.03a4.88 4.88 0 01-.836 1.005c-.34.306-.747.56-1.224.763-.476.193-1.041.29-1.695.29-.832 0-1.587-.165-2.265-.496a4.128 4.128 0 01-1.6-1.393c-.387-.598-.58-1.276-.58-2.035 0-.687.129-1.296.387-1.83a3.569 3.569 0 011.139-1.344c.508-.371 1.142-.65 1.901-.835.76-.194 1.64-.291 2.64-.291h2.023zm9.23-2.265V23h-3.488V9.894h3.282l.206 2.859zm3.949-2.943l-.06 3.234a8.471 8.471 0 00-.619-.061 6.288 6.288 0 00-.642-.036c-.492 0-.92.064-1.283.194a2.289 2.289 0 00-.897.545 2.378 2.378 0 00-.533.884 4.348 4.348 0 00-.194 1.187l-.702-.218c0-.848.085-1.627.254-2.338.17-.719.416-1.344.74-1.877.33-.533.734-.945 1.21-1.236.477-.29 1.022-.436 1.636-.436.193 0 .391.016.593.049.202.024.368.06.497.109zm8.733 9.568c0-.25-.073-.476-.218-.678-.146-.202-.416-.387-.812-.557-.387-.178-.949-.34-1.683-.485a13.13 13.13 0 01-1.854-.545 6.426 6.426 0 01-1.477-.811 3.529 3.529 0 01-.97-1.114c-.234-.437-.35-.933-.35-1.49 0-.55.116-1.066.35-1.55a3.997 3.997 0 011.03-1.285c.453-.38 1.002-.674 1.647-.884.655-.218 1.39-.327 2.205-.327 1.139 0 2.116.182 2.931.545.824.364 1.454.864 1.89 1.502.444.63.666 1.349.666 2.156h-3.488c0-.339-.073-.642-.219-.908a1.44 1.44 0 00-.654-.642c-.29-.162-.67-.242-1.138-.242-.388 0-.723.068-1.005.205-.283.13-.501.307-.654.533-.146.218-.219.46-.219.727 0 .202.04.384.122.545.088.154.23.295.423.424.194.13.445.25.751.364a9.37 9.37 0 001.163.29c.945.194 1.789.448 2.532.763.743.307 1.332.727 1.768 1.26.436.525.654 1.215.654 2.071 0 .582-.129 1.114-.387 1.599-.259.484-.63.908-1.115 1.272-.484.355-1.066.634-1.744.836-.67.193-1.425.29-2.265.29-1.22 0-2.253-.218-3.1-.654-.84-.436-1.478-.989-1.914-1.66-.428-.678-.642-1.372-.642-2.083h3.306c.017.477.138.86.364 1.151.234.29.529.5.884.63.363.13.755.194 1.175.194.452 0 .828-.06 1.126-.182.299-.13.525-.299.678-.509.162-.218.243-.468.243-.75zM4.264 37.084v-2.53c0-.194-.04-.362-.118-.505a.772.772 0 00-.346-.336 1.25 1.25 0 00-.572-.118 1.34 1.34 0 00-.559.11.972.972 0 00-.372.285.627.627 0 00-.132.382h-.84c0-.176.045-.35.136-.523.091-.172.221-.328.39-.467.173-.143.38-.255.618-.336.243-.085.512-.128.809-.128.357 0 .672.06.945.182.275.121.49.304.645.55.157.242.236.546.236.913v2.289c0 .163.014.338.04.522.031.185.075.344.133.477v.073H4.4a1.57 1.57 0 01-.1-.386 3.114 3.114 0 01-.036-.454zm.145-2.14l.01.59h-.85c-.24 0-.453.02-.64.06a1.464 1.464 0 00-.473.168.759.759 0 00-.39.681.86.86 0 00.104.422.76.76 0 00.313.305c.142.072.317.109.522.109a1.418 1.418 0 001.15-.563.86.86 0 00.19-.46l.36.405a1.22 1.22 0 01-.173.422 2.02 2.02 0 01-.932.795c-.212.091-.45.137-.717.137a1.88 1.88 0 01-.877-.196 1.5 1.5 0 01-.581-.522 1.383 1.383 0 01-.205-.74c0-.264.052-.495.155-.695.103-.203.251-.371.445-.505.194-.136.427-.239.7-.308.272-.07.576-.105.912-.105h.977zm4.79.818H7.585l-.01-.672h1.318c.26 0 .477-.026.65-.078a.8.8 0 00.395-.231.568.568 0 00.131-.382.599.599 0 00-.3-.531c-.1-.06-.224-.105-.372-.132a2.542 2.542 0 00-.513-.045H7.808v4.233h-.84v-4.915h1.917c.312 0 .592.027.84.082.251.054.465.138.64.25.18.109.316.248.41.418.093.17.14.37.14.6a1.01 1.01 0 01-.359.776 1.45 1.45 0 01-.436.254 2.244 2.244 0 01-.595.123l-.327.25zm0 2.162H7.28l.418-.681h1.5c.232 0 .426-.03.58-.087a.728.728 0 00.346-.254.677.677 0 00.118-.4.657.657 0 00-.118-.395.691.691 0 00-.345-.254 1.604 1.604 0 00-.582-.091H7.922l.009-.672h1.594l.305.254c.27.021.498.088.685.2.188.112.33.254.427.427.097.17.146.354.146.554 0 .23-.044.433-.132.608a1.16 1.16 0 01-.372.441 1.817 1.817 0 01-.595.264 3.304 3.304 0 01-.79.086zm5.429-4.915v4.915h-.845v-4.915h.845zm1.649 0v.681h-4.11v-.68h4.11zm.878 2.512v-.104c0-.355.052-.683.155-.986.103-.306.25-.57.445-.795.194-.227.428-.403.704-.527.275-.127.584-.19.926-.19.346 0 .656.063.931.19.28.124.515.3.71.527.196.224.346.49.449.795.103.303.154.631.154.986v.104c0 .354-.051.683-.154.986a2.359 2.359 0 01-.45.795 2.06 2.06 0 01-.704.526 2.21 2.21 0 01-.927.187c-.345 0-.655-.062-.93-.187a2.106 2.106 0 01-.71-.526 2.401 2.401 0 01-.444-.795 3.042 3.042 0 01-.155-.986zm.84-.104v.104c0 .245.03.477.087.695.057.215.144.406.259.572.118.167.265.299.44.396.176.093.38.14.613.14.23 0 .432-.047.605-.14.175-.097.32-.23.436-.396.115-.166.201-.357.259-.572.06-.218.09-.45.09-.695v-.104c0-.243-.03-.471-.09-.686a1.766 1.766 0 00-.264-.577 1.252 1.252 0 00-.436-.4 1.223 1.223 0 00-.609-.145c-.23 0-.433.048-.608.145a1.3 1.3 0 00-.436.4 1.823 1.823 0 00-.26.577 2.64 2.64 0 00-.085.686zm9.892 1.907c.2 0 .385-.04.555-.122.17-.082.308-.194.417-.337a.936.936 0 00.187-.495h.799a1.499 1.499 0 01-.295.814 2.017 2.017 0 01-1.663.83c-.37 0-.692-.064-.967-.195-.273-.13-.5-.309-.681-.536a2.392 2.392 0 01-.405-.78 3.297 3.297 0 01-.131-.941v-.19c0-.33.044-.643.131-.937.091-.296.226-.558.405-.785a1.91 1.91 0 01.68-.536c.276-.13.599-.196.968-.196.385 0 .721.08 1.009.237.287.154.513.366.677.636.166.266.257.569.272.908h-.8a1.21 1.21 0 00-.172-.55 1.076 1.076 0 00-.4-.39c-.166-.1-.362-.15-.586-.15-.257 0-.474.051-.65.154-.172.1-.31.236-.412.409a1.9 1.9 0 00-.218.568 3.122 3.122 0 00-.064.631v.19c0 .216.021.428.064.637.042.209.113.398.213.568.103.17.24.305.413.408.176.1.394.15.654.15zm9.415-4.315v.695h-2.484v-.695h2.484zm-2.362 0v4.915h-.84v-4.915h.84zm3.107 0v4.915h-.845v-4.915h.845zm2.655.945v5.86h-.845v-6.805h.772l.073.945zm3.31 1.472v.095c0 .357-.041.689-.126.995a2.446 2.446 0 01-.373.79 1.69 1.69 0 01-.595.522 1.72 1.72 0 01-.813.187 2.07 2.07 0 01-.826-.155 1.63 1.63 0 01-.61-.45 2.297 2.297 0 01-.399-.708 4.104 4.104 0 01-.2-.931v-.509c.037-.363.105-.689.205-.976.1-.288.231-.533.395-.736.166-.206.368-.362.604-.468.236-.11.509-.164.818-.164.308 0 .583.06.822.182.239.118.44.288.604.509.163.22.286.486.368.795.084.305.127.646.127 1.022zm-.844.095v-.095a2.97 2.97 0 00-.077-.69 1.743 1.743 0 00-.24-.573 1.147 1.147 0 00-.41-.39 1.163 1.163 0 00-.595-.146 1.31 1.31 0 00-.554.109 1.197 1.197 0 00-.395.295c-.109.121-.198.26-.268.418a2.4 2.4 0 00-.15.482v1.176c.06.212.145.412.255.6.108.184.254.334.435.45.182.111.41.167.686.167.228 0 .423-.047.586-.14.167-.097.303-.23.41-.396a1.8 1.8 0 00.24-.572c.051-.218.077-.45.077-.695zm2.16 0v-.104c0-.355.05-.683.154-.986.103-.306.251-.57.445-.795.194-.227.428-.403.704-.527.276-.127.584-.19.927-.19.345 0 .655.063.93.19.28.124.516.3.71.527.196.224.346.49.449.795.103.303.154.631.154.986v.104c0 .354-.051.683-.154.986a2.36 2.36 0 01-.45.795 2.06 2.06 0 01-.704.526 2.21 2.21 0 01-.926.187c-.346 0-.656-.062-.931-.187a2.107 2.107 0 01-.709-.526 2.403 2.403 0 01-.445-.795 3.045 3.045 0 01-.155-.986zm.84-.104v.104c0 .245.029.477.086.695.058.215.144.406.259.572.118.167.265.299.44.396.176.093.38.14.614.14.23 0 .431-.047.604-.14.175-.097.32-.23.436-.396.115-.166.201-.357.259-.572.06-.218.09-.45.09-.695v-.104c0-.243-.03-.471-.09-.686a1.766 1.766 0 00-.264-.577 1.252 1.252 0 00-.436-.4 1.223 1.223 0 00-.608-.145c-.23 0-.433.048-.61.145-.172.097-.317.23-.435.4a1.823 1.823 0 00-.259.577 2.645 2.645 0 00-.086.686zm8.305-4.547h.69c0 .297-.045.533-.136.708a.99.99 0 01-.373.4c-.154.094-.33.165-.527.214a19.89 19.89 0 01-.604.14c-.26.055-.502.141-.727.26a1.698 1.698 0 00-.572.49c-.157.212-.274.487-.35.827-.072.339-.092.758-.059 1.258v.418h-.69v-.418c0-.56.053-1.05.159-1.467.109-.418.262-.771.459-1.059.197-.287.43-.516.7-.686.272-.17.572-.286.899-.35.236-.045.439-.093.608-.145a.918.918 0 00.386-.218.503.503 0 00.137-.372zm-.995 2.42c.32 0 .607.057.858.169.252.112.465.268.64.468.176.2.31.436.4.708.094.27.141.564.141.882v.1c0 .342-.05.66-.15.953a2.18 2.18 0 01-.431.763 1.96 1.96 0 01-.69.505c-.27.12-.577.181-.923.181-.345 0-.654-.06-.926-.181-.27-.122-.5-.29-.69-.505a2.26 2.26 0 01-.437-.763 3.028 3.028 0 01-.145-.954v-.1c0-.075.014-.15.04-.222a2.26 2.26 0 01.1-.223c.043-.075.081-.156.114-.24a2.88 2.88 0 01.46-.759c.196-.233.43-.42.703-.563.276-.145.588-.218.936-.218zm-.164.687c-.309 0-.563.07-.763.213a1.287 1.287 0 00-.44.568 1.957 1.957 0 00-.146.758v.1c0 .23.028.449.082.654.055.206.136.39.245.55.112.157.253.282.423.373.172.09.375.136.608.136.234 0 .435-.046.605-.136.17-.091.308-.215.417-.373.11-.16.191-.344.246-.55.054-.205.081-.423.081-.654v-.1a2.06 2.06 0 00-.081-.585 1.444 1.444 0 00-.25-.491 1.132 1.132 0 00-.423-.336 1.336 1.336 0 00-.604-.127zm5.662 4.038c-.343 0-.653-.058-.931-.173a2.112 2.112 0 01-.714-.495 2.203 2.203 0 01-.454-.754 2.765 2.765 0 01-.159-.954v-.19c0-.4.06-.756.177-1.068.118-.315.279-.581.482-.8.203-.218.433-.383.69-.495.258-.112.524-.168.8-.168.35 0 .654.06.908.182.258.121.468.29.631.509.164.215.285.47.364.763.078.29.118.608.118.954v.377h-3.67v-.686h2.83v-.064a2.093 2.093 0 00-.137-.636 1.144 1.144 0 00-.363-.508c-.167-.134-.394-.2-.681-.2a1.144 1.144 0 00-.94.477c-.116.157-.205.35-.269.577a2.923 2.923 0 00-.095.785v.191c0 .233.032.453.095.659.067.203.162.381.287.536.127.154.28.275.458.363.182.088.388.132.618.132.297 0 .548-.06.754-.182.206-.121.386-.283.54-.486l.51.404a2.35 2.35 0 01-.405.46 1.929 1.929 0 01-.604.353 2.34 2.34 0 01-.84.137zm6.533-5.006v.695h-2.271v4.22h-.84v-4.915h3.111zm.883 2.512v-.104c0-.355.052-.683.154-.986.103-.306.252-.57.446-.795.193-.227.428-.403.704-.527.275-.127.584-.19.926-.19.346 0 .656.063.931.19.279.124.515.3.709.527.197.224.347.49.45.795.103.303.154.631.154.986v.104c0 .354-.051.683-.154.986a2.36 2.36 0 01-.45.795 2.06 2.06 0 01-.704.526 2.21 2.21 0 01-.927.187c-.345 0-.655-.062-.93-.187a2.108 2.108 0 01-.71-.526 2.403 2.403 0 01-.445-.795 3.045 3.045 0 01-.154-.986zm.84-.104v.104c0 .245.03.477.087.695.057.215.144.406.259.572.118.167.264.299.44.396.176.093.38.14.613.14.23 0 .432-.047.605-.14a1.27 1.27 0 00.435-.396c.116-.166.202-.357.26-.572.06-.218.09-.45.09-.695v-.104c0-.243-.03-.471-.09-.686a1.766 1.766 0 00-.264-.577 1.252 1.252 0 00-.436-.4 1.223 1.223 0 00-.609-.145c-.23 0-.433.048-.608.145a1.3 1.3 0 00-.436.4 1.823 1.823 0 00-.26.577 2.64 2.64 0 00-.086.686zm7.978 1.39l1.672-3.798h.808l-2.19 4.915h-.58l-2.18-4.915h.808l1.662 3.797zm-1.907-3.798v4.915h-.84v-4.915h.84zm3.788 4.915v-4.915h.845v4.915h-.845z"/></svg><svg viewBox="0 0 42 42" id="menu" xmlns="http://www.w3.org/2000/svg"><rect x="3" y="9" width="35" height="3" rx="1.5"/><rect x="3" y="19" width="35" height="3" rx="1.5"/><rect x="3" y="30" width="19" height="2" rx="1"/></svg><svg viewBox="0 0 24 24" id="more" xmlns="http://www.w3.org/2000/svg"><mask id="ga" maskUnits="userSpaceOnUse" x="0" y="0" width="24" height="24"><path d="M0 0h24v24H0V0z"/></mask><g mask="url(#ga)"><path d="M12 20l-8-8 1.4-1.425 5.6 5.6V4h2v12.175l5.6-5.6L20 12l-8 8z"/></g></svg><svg viewBox="0 0 42 42" id="phone" xmlns="http://www.w3.org/2000/svg"><path d="M31.617 33.25c-3.345 0-6.605-.745-9.78-2.236a29.661 29.661 0 01-8.44-5.911 29.66 29.66 0 01-5.91-8.44c-1.492-3.175-2.237-6.435-2.237-9.78 0-.466.156-.855.467-1.166.31-.311.7-.467 1.166-.467h6.3c.363 0 .687.117.973.35.285.233.453.531.505.894l1.011 5.445c.052.363.046.693-.02.992a1.592 1.592 0 01-.446.797l-3.773 3.81c1.09 1.868 2.457 3.618 4.103 5.25a28.997 28.997 0 005.425 4.24l3.656-3.656c.233-.233.538-.408.914-.525a2.511 2.511 0 011.108-.097l5.367 1.089c.362.078.66.253.894.525.233.272.35.59.35.953v6.3c0 .466-.156.855-.467 1.166-.31.311-.7.467-1.166.467zM9.956 14.583l2.566-2.566-.66-3.656H8.4c.13 1.063.311 2.113.544 3.15a16.99 16.99 0 001.012 3.072zm13.922 13.923c1.01.44 2.041.79 3.091 1.05 1.05.259 2.107.427 3.17.505V26.64l-3.656-.739-2.605 2.606z"/></svg></svg>